<?xml version="1.0" encoding="UTF-8"?>
<svg id="Camada_1" data-name="Camada 1" xmlns="http://www.w3.org/2000/svg" viewBox="0 0 1080 1080">
  <defs>
    <style>
      .cls-1 {
        fill: #fff;
      }
    </style>
  </defs>
  <path class="cls-1" d="M253.76,583.09h-17.24v-68.94h-31.02v68.94h-17.23v-68.94h-31.02v68.94h-17.24v-86.18h113.76v86.18Z"/>
  <path class="cls-1" d="M345.43,548.62h-56.53c1.55,9.83,7.07,17.24,25.85,17.24,6.9,0,13.62,0,24.82-3.1v16.89c-13.44,3.45-18.27,3.45-24.82,3.45-38.95,0-43.78-27.75-43.78-43.09,0-25.34,10.69-43.09,37.23-43.09s37.23,16.03,37.23,41.37v10.34ZM288.38,531.38h39.81c-.69-12.58-6.38-17.24-19.99-17.24s-18.79,5.69-19.82,17.24Z"/>
  <path class="cls-1" d="M435.91,507.94l-47.57,57.91h47.57v17.24h-74.97v-11.03l47.57-57.91h-47.57v-17.24h74.97v11.03Z"/>
  <path class="cls-1" d="M528.11,507.94l-47.57,57.91h47.57v17.24h-74.97v-11.03l47.57-57.91h-47.57v-17.24h74.97v11.03Z"/>
  <path class="cls-1" d="M626,565.85v17.24h-27.58v-8.62c-5.17,5.17-11.89,8.62-23.96,8.62-21.03,0-30.85-13.44-30.85-29.3s9.83-29.3,30.85-29.3c12.07,0,18.79,3.45,23.96,8.62v-18.96h-44.81v-17.24h62.05v68.94h10.34ZM598.43,553.79c0-9.48-6.21-12.06-18.79-12.06s-18.79,2.58-18.79,12.06,6.21,12.06,18.79,12.06,18.79-2.58,18.79-12.06Z"/>
  <path class="cls-1" d="M717.34,583.09h-17.24v-68.94h-37.92v68.94h-17.24v-86.18h72.39v86.18Z"/>
  <path class="cls-1" d="M755.25,496.91v86.18h-17.24v-86.18h17.24Z"/>
  <path class="cls-1" d="M848.32,583.09h-17.24v-68.94h-37.92v68.94h-17.24v-86.18h72.39v86.18Z"/>
  <path class="cls-1" d="M940,548.62h-56.53c1.55,9.83,7.07,17.24,25.85,17.24,6.9,0,13.62,0,24.82-3.1v16.89c-13.44,3.45-18.27,3.45-24.82,3.45-38.95,0-43.78-27.75-43.78-43.09,0-25.34,10.69-43.09,37.23-43.09s37.23,16.03,37.23,41.37v10.34ZM882.95,531.38h39.81c-.69-12.58-6.38-17.24-19.99-17.24s-18.79,5.69-19.82,17.24Z"/>
</svg>